
<svg width="207" height="126" viewBox="0 0 207 126" fill="none" xmlns="http://www.w3.org/2000/svg">
<path opacity="0.04" d="M23.1708 117.128C24.2789 117.954 26.2223 118.547 28.1385 119.112H187.691C187.935 118.963 188.171 118.802 188.394 118.617C189.793 117.454 190.53 115.695 191.157 113.987C194.184 105.742 195.825 96.8536 194.765 88.1352C193.705 79.4165 189.764 70.8796 183.04 65.2296C179.61 62.3474 175.541 60.2559 172.324 57.1375C162.444 47.5615 162.305 30.1989 150.966 22.4047C145.742 18.8136 139.052 18.046 132.727 18.4636C126.818 18.8536 120.885 20.2204 115.771 23.2066C110.43 26.3253 106.242 31.0312 101.804 35.3384C92.9087 43.972 82.1052 51.4722 69.7922 52.908C61.9602 53.8213 54.0335 52.2213 46.1631 52.702C37.5727 53.2268 29.1529 56.2946 22.2383 61.4191C17.8105 64.7007 13.9164 68.9378 11.9938 74.1032C9.14935 81.7458 10.9449 90.3189 13.693 97.9964C15.5897 103.294 18.5538 113.686 23.1708 117.128Z" fill="#0CD0A2"/>
<path opacity="0.04" d="M183.753 95.3649C179.558 103.234 175.333 111.087 171.134 118.955C170.569 120.014 169.967 121.115 168.974 121.789C167.692 122.66 166.027 122.647 164.478 122.603C156.084 122.364 147.709 122.212 139.316 122.135C119.989 121.959 100.663 121.783 81.336 121.606C72.6643 121.527 63.9927 121.448 55.3213 121.369C49.649 121.317 44.0064 121.534 38.3459 121.551C35.4679 121.559 32.4128 121.008 30.2848 119.071C28.5152 117.459 27.6282 115.118 26.8589 112.851C22.7171 100.647 20.2234 87.8872 19.4554 75.0235C18.7968 63.9892 21.2519 52.8443 30.0887 45.419C33.3818 42.6523 37.2874 40.6443 40.376 37.651C49.8602 28.4584 49.9936 11.7912 60.8781 4.30924C65.8931 0.861882 72.3152 0.12492 78.3872 0.52588C84.0595 0.90028 89.7549 2.2126 94.664 5.07916C99.7904 8.07276 103.811 12.5905 108.071 16.7252C116.61 25.0129 126.981 32.2129 138.801 33.5912C146.32 34.468 153.929 32.932 161.484 33.3934C169.731 33.8971 177.813 36.842 184.451 41.7614C188.701 44.9118 192.44 48.979 194.285 53.9377C198.318 64.772 193.922 76.1384 188.834 85.7864C187.148 88.9835 185.453 92.1755 183.753 95.3649Z" fill="#0CD0A2"/>
<path d="M66.8589 100.832L65.3209 104.679L64.9398 104.741L61.239 105.353C61.239 105.353 40.0662 109.271 42.1584 102.237C43.1334 98.9656 45.9123 97.6936 48.6029 97.2639C42.943 96.8162 34.8941 95.2738 31.5389 90.2431C26.1049 82.101 40.7315 82.2693 40.7315 82.2693C40.7315 82.2693 15.4189 70.0984 28.8045 59.2172C28.9462 59.1064 29.0883 58.9954 29.2256 58.8936C42.4557 49.0984 49.512 78.1074 49.512 78.1074C49.512 78.1074 51.7014 61.5263 58.4873 68.5781C62.6758 72.9394 62.454 81.1301 61.6742 86.7548C62.6713 84.2152 64.5155 81.7775 67.9193 81.5292C75.2358 80.9973 66.8589 100.832 66.8589 100.832Z" fill="#0CD0A2"/>
<g opacity="0.43">
<path d="M65.3211 104.679L32.5918 63.3145" stroke="white" stroke-miterlimit="10" stroke-linecap="round" stroke-linejoin="round"/>
<path d="M57.4693 75.9702L54.2734 90.7168L37.8584 90.1529" stroke="white" stroke-miterlimit="10" stroke-linecap="round" stroke-linejoin="round"/>
<path d="M66.2639 86.5488L61.3052 99.6032L45.7109 101.793" stroke="white" stroke-miterlimit="10" stroke-linecap="round" stroke-linejoin="round"/>
</g>
<path d="M90.3728 74.028V87.9675L89.4199 87.6796L79.208 84.5679V69.228L80.3514 69.7199L86.3571 72.2997L90.3728 74.028Z" fill="#FAAD3B"/>
<g opacity="0.75">
<path d="M89.4199 87.6802L79.208 84.5688V69.229L80.3514 69.7208L84.7923 72.7436C84.7923 72.7436 82.4122 81.4396 88.3114 86.2709C88.9898 86.8248 89.3402 87.2901 89.4199 87.6802Z" fill="#F5E073"/>
</g>
<path d="M95.2334 63.8442C97.4846 63.8442 99.3096 61.7638 99.3096 59.1975C99.3096 56.6312 97.4846 54.5508 95.2334 54.5508C92.9822 54.5508 91.1572 56.6312 91.1572 59.1975C91.1572 61.7638 92.9822 63.8442 95.2334 63.8442Z" fill="#0CD0A2"/>
<path d="M87.4966 75.3964C87.4326 75.4028 87.3654 75.4092 87.2982 75.4124C86.8374 75.438 86.3542 75.4412 85.8486 75.4252C73.8902 74.9612 75.0614 56.3212 76.0214 48.8108C76.0214 48.8044 76.0214 48.798 76.0246 48.7948C76.2646 46.9036 76.4918 45.7228 76.4918 45.7228L82.2038 44.0588L85.8486 42.9932L91.999 45.7228L96.927 54.4908C96.927 54.4908 97.1511 55.7164 97.2855 57.5692C97.2983 57.758 97.3111 57.95 97.3239 58.1516C97.3239 58.19 97.327 58.2316 97.327 58.27V58.286C97.6438 64.1068 96.9014 74.6668 87.4966 75.3964Z" fill="#FAAD3B"/>
<path d="M86.7898 61.6904C86.7898 62.4469 86.3687 63.06 85.849 63.06C85.3293 63.06 84.9082 62.4469 84.9082 61.6904C84.9082 60.9339 85.3293 60.3208 85.849 60.3208C86.3684 60.3208 86.7898 60.9342 86.7898 61.6904Z" fill="#381459"/>
<path d="M94.3211 61.6904C94.3211 62.4469 93.8999 63.06 93.3803 63.06C92.8606 63.06 92.4395 62.4469 92.4395 61.6904C92.4395 60.9339 92.8606 60.3208 93.3803 60.3208C93.8996 60.3208 94.3211 60.9342 94.3211 61.6904Z" fill="#381459"/>
<path d="M91.7938 61.6904C91.7938 61.6904 90.6354 64.0581 91.3551 65.1359C92.0751 66.2136 92.4341 67.0757 90.71 67.6866" stroke="#381459" stroke-miterlimit="10" stroke-linecap="round" stroke-linejoin="round"/>
<path d="M83.5254 67.2915C83.5254 67.2915 85.7168 70.7587 89.8124 69.5101" stroke="#381459" stroke-miterlimit="10" stroke-linecap="round" stroke-linejoin="round"/>
<path d="M84.1201 58.6694C84.1201 58.6694 84.588 57.4896 85.9675 57.6515C87.1838 57.7942 87.4526 58.6694 87.4526 58.6694" stroke="#381459" stroke-miterlimit="10" stroke-linecap="round" stroke-linejoin="round"/>
<path d="M92.3662 59.0734C92.3662 59.0734 92.732 58.1509 93.8104 58.2776C94.7614 58.3893 94.9717 59.0734 94.9717 59.0734" stroke="#381459" stroke-miterlimit="10" stroke-linecap="round" stroke-linejoin="round"/>
<g opacity="0.75">
<path d="M97.6278 58.2858C97.6278 58.2858 97.6054 58.2858 97.5702 58.2858C97.5222 58.2858 97.439 58.2794 97.327 58.2698C95.519 58.0938 86.0534 56.6218 83.4358 53.2714C83.4358 53.2714 75.1062 72.0938 87.4966 75.3962C87.4326 75.4026 87.3654 75.409 87.2982 75.4122C86.8374 75.4378 86.3542 75.441 85.8486 75.425C73.8902 74.961 75.0614 56.321 76.0214 48.8106C76.0214 48.8042 76.0214 48.7978 76.0246 48.7946C76.4054 46.9034 76.7351 45.7226 76.7351 45.7226L82.447 44.0586L86.6646 44.7338L92.6774 48.2026L94.5718 51.9786L97.2854 57.569L97.567 58.1514L97.6278 58.2858Z" fill="#F5E073"/>
</g>
<path d="M82.6657 49.9832C82.6657 49.9832 88.2161 58.0773 97.3844 58.2856C97.3844 58.2856 100.603 36.9854 80.6769 41.2104C73.4788 43.515 72.2676 48.0302 74.5771 60.7048C74.5771 60.7048 80.9444 55.5793 82.6657 49.9832Z" fill="#381459"/>
<path d="M77.4494 42.645C73.8315 47.6815 74.3125 56.0805 74.3192 56.1679L73.9829 56.1916C73.9761 56.1007 73.5323 48.3474 76.6961 43.173C76.9317 42.9877 77.1838 42.813 77.4494 42.645Z" fill="black"/>
<path d="M75.8769 64.5229C78.1281 64.5229 79.9531 62.4425 79.9531 59.8762C79.9531 57.3099 78.1281 55.2295 75.8769 55.2295C73.6257 55.2295 71.8008 57.3099 71.8008 59.8762C71.8008 62.4425 73.6257 64.5229 75.8769 64.5229Z" fill="#0CD0A2"/>
<path d="M74.5769 63.6073C76.4084 63.6073 77.8931 61.9369 77.8931 59.8764C77.8931 57.8159 76.4084 56.1455 74.5769 56.1455C72.7454 56.1455 71.2607 57.8159 71.2607 59.8764C71.2607 61.9369 72.7454 63.6073 74.5769 63.6073Z" fill="#0CD0A2"/>
<path d="M94.2801 44.215C93.9137 43.7881 93.5035 43.3846 93.0494 43.0182C91.2068 40.6377 88.5944 38.8927 84.906 38.8892C82.2129 38.8924 79.9937 39.8038 78.2891 41.6159C77.9864 41.9388 77.7073 42.2815 77.4484 42.6447C73.8305 47.6812 74.3115 56.0803 74.3182 56.1676L73.9819 56.1913C73.9752 56.1004 73.5313 48.3471 76.6952 43.1727C77.0852 42.5305 77.5323 41.9286 78.0433 41.3875C79.812 39.5081 82.115 38.5532 84.8923 38.5532H84.9057C89.4219 38.5599 92.3672 41.0815 94.2801 44.215Z" fill="#0CD0A2"/>
<path d="M111.701 116.165L108.301 116.108L66.0039 115.39L66.5316 81.0926L73.0333 79.6792C73.0378 79.6792 73.0378 79.6792 73.0378 79.6792L79.2074 78.2344C79.2074 78.2344 87.5623 90.6357 91.7463 79.3425L107.676 84.5547L111.701 116.165Z" fill="#F5E073"/>
<g opacity="0.75">
<path d="M69.9391 91.46C69.9391 91.46 78.396 112.883 102.826 112.386L64.6904 110.72L65.1541 96.219L69.9391 91.46Z" fill="#F5E073"/>
</g>
<path d="M86.8714 84.0874L86.6641 112.222" stroke="#0CD0A2" stroke-miterlimit="10" stroke-linecap="round" stroke-linejoin="round"/>
<path d="M54.4556 100.783L54.2739 112.406C54.2441 114.307 55.7568 115.875 57.6582 115.914L100.543 116.781V112.972L67.1414 108.948L67.5961 100.307L54.4556 100.783Z" fill="#FAAD3B"/>
<path d="M79.2064 78.2349L86.8716 84.0873C86.8716 84.0873 85.9017 84.5945 83.344 87.3747L73.0361 79.6768L79.2064 78.2349Z" fill="#0CD0A2"/>
<path d="M86.8711 84.0877L90.1111 86.6765L94.2541 80.1654L90.3716 78.895L86.8711 84.0877Z" fill="#0CD0A2"/>
<path d="M76.5224 104.782H75.3143C73.0708 104.782 71.252 102.963 71.252 100.719V95.4487H80.5847V100.719C80.5847 102.963 78.7659 104.782 76.5224 104.782Z" stroke="#0CD0A2" stroke-miterlimit="10" stroke-linecap="round" stroke-linejoin="round"/>
<path d="M69.4788 101.791H53.3057C53.3057 85.5563 61.4212 82.0724 65.082 81.3278H65.0865C66.1457 81.115 67.0621 80.9771 67.0621 80.9771C71.1223 83.7166 69.4788 101.791 69.4788 101.791Z" fill="#F5E073"/>
<path d="M69.4775 101.792C69.4775 101.792 70.5153 93.21 69.4775 89.1255" stroke="#0CD0A2" stroke-miterlimit="10" stroke-linecap="round" stroke-linejoin="round"/>
<path d="M67.5182 101.792L67.1416 108.948L82.8392 110.945" stroke="#0CD0A2" stroke-miterlimit="10" stroke-linecap="round" stroke-linejoin="round"/>
<path d="M196.885 75.0223C196.885 75.0223 189.841 66.4419 193.367 65.9852C196.526 65.5759 196.848 73.151 196.881 74.735C196.885 74.9193 196.885 75.0223 196.885 75.0223Z" fill="#0CD0A2"/>
<path d="M196.983 74.9068C196.983 74.9068 205.564 67.8626 206.021 71.3893C206.477 74.916 196.983 74.9068 196.983 74.9068Z" fill="#0CD0A2"/>
<path d="M193.745 81.7069C193.745 81.7069 186.701 73.1264 190.228 72.6698C193.754 72.2128 193.745 81.7069 193.745 81.7069Z" fill="#0CD0A2"/>
<path d="M193.734 81.7393C193.734 81.7393 202.315 74.6951 202.772 78.2218C203.228 81.7482 193.734 81.7393 193.734 81.7393Z" fill="#0CD0A2"/>
<path d="M190.405 87.2075C190.405 87.2075 184.225 79.6798 187.319 79.2791C190.413 78.8785 190.405 87.2075 190.405 87.2075Z" fill="#0CD0A2"/>
<path d="M190.322 87.1893C190.322 87.1893 197.85 81.0095 198.251 84.1035C198.651 87.1976 190.322 87.1893 190.322 87.1893Z" fill="#0CD0A2"/>
<path d="M186.594 92.2221C186.594 92.2221 181.759 84.4813 184.682 84.4819C187.606 84.4829 186.594 92.2221 186.594 92.2221Z" fill="#0CD0A2"/>
<path d="M186.452 92.1123C186.452 92.1123 194.193 87.2775 194.192 90.201C194.192 93.1245 186.452 92.1123 186.452 92.1123Z" fill="#0CD0A2"/>
<path d="M182.293 96.7111C182.293 96.7111 179.624 87.9831 182.448 88.7399C185.272 89.4964 182.293 96.7111 182.293 96.7111Z" fill="#0CD0A2"/>
<path d="M182.283 96.5965C182.283 96.5965 191.011 93.9271 190.254 96.7511C189.498 99.5751 182.283 96.5965 182.283 96.5965Z" fill="#0CD0A2"/>
<path d="M178.013 100.393C178.013 100.393 175.699 92.8257 178.147 93.4817C180.596 94.1377 178.013 100.393 178.013 100.393Z" fill="#0CD0A2"/>
<path d="M177.938 100.205C177.938 100.205 185.505 97.8905 184.848 100.339C184.193 102.787 177.938 100.205 177.938 100.205Z" fill="#0CD0A2"/>
<path d="M174.505 102.966C174.505 102.966 172.528 96.5034 174.619 97.0637C176.71 97.6241 174.505 102.966 174.505 102.966Z" fill="#0CD0A2"/>
<path d="M174.404 102.775C174.404 102.775 180.867 100.799 180.307 102.89C179.746 104.981 174.404 102.775 174.404 102.775Z" fill="#0CD0A2"/>
<path d="M196.671 75.4961C196.671 75.4961 199.115 64.2667 201.253 65.0299C203.39 65.7928 196.671 75.4961 196.671 75.4961Z" fill="#0CD0A2"/>
<path d="M197.633 73.1895C197.633 73.1895 189.675 98.3507 164.671 107.692" stroke="#0CD0A2" stroke-miterlimit="10"/>
<path d="M9.27734 72.9932C9.27734 72.9932 17.7685 65.8415 14.3842 64.7491C11.3529 63.7705 9.65462 71.1599 9.33366 72.711C9.2959 72.8918 9.27734 72.9932 9.27734 72.9932Z" fill="#0CD0A2"/>
<path d="M9.20189 72.8616C9.20189 72.8616 2.05021 64.3707 0.958049 67.7547C-0.134431 71.1387 9.20189 72.8616 9.20189 72.8616Z" fill="#0CD0A2"/>
<path d="M11.1455 80.1387C11.1455 80.1387 19.6364 72.987 16.2524 71.8945C12.8681 70.8024 11.1455 80.1387 11.1455 80.1387Z" fill="#0CD0A2"/>
<path d="M11.1501 80.1717C11.1501 80.1717 3.99845 71.6808 2.90629 75.0648C1.81381 78.4488 11.1501 80.1717 11.1501 80.1717Z" fill="#0CD0A2"/>
<path d="M13.4258 86.1558C13.4258 86.1558 20.8751 79.8816 17.9061 78.9232C14.9371 77.9651 13.4258 86.1558 13.4258 86.1558Z" fill="#0CD0A2"/>
<path d="M13.5118 86.153C13.5118 86.153 7.23756 78.7037 6.27916 81.6727C5.32076 84.6416 13.5118 86.153 13.5118 86.153Z" fill="#0CD0A2"/>
<path d="M16.2588 91.7815C16.2588 91.7815 22.4246 85.0522 19.55 84.5197C16.6751 83.9876 16.2588 91.7815 16.2588 91.7815Z" fill="#0CD0A2"/>
<path d="M16.4187 91.7C16.4187 91.7 9.68943 85.5342 9.15695 88.4088C8.62447 91.2833 16.4187 91.7 16.4187 91.7Z" fill="#0CD0A2"/>
<path d="M19.6687 96.9796C19.6687 96.9796 23.885 88.8848 20.9705 89.1136C18.0559 89.3428 19.6687 96.9796 19.6687 96.9796Z" fill="#0CD0A2"/>
<path d="M19.6995 96.8693C19.6995 96.8693 11.6051 92.6527 11.8339 95.5673C12.0627 98.4818 19.6995 96.8693 19.6995 96.8693Z" fill="#0CD0A2"/>
<path d="M23.2053 101.38C23.2053 101.38 26.8609 94.3624 24.3339 94.5608C21.8069 94.7592 23.2053 101.38 23.2053 101.38Z" fill="#0CD0A2"/>
<path d="M23.3139 101.209C23.3139 101.209 16.296 97.5537 16.4944 100.081C16.6931 102.608 23.3139 101.209 23.3139 101.209Z" fill="#0CD0A2"/>
<path d="M26.186 104.55C26.186 104.55 29.3083 98.5569 27.1499 98.7262C24.9918 98.8958 26.186 104.55 26.186 104.55Z" fill="#0CD0A2"/>
<path d="M26.3191 104.381C26.3191 104.381 20.3251 101.259 20.4947 103.417C20.6643 105.575 26.3191 104.381 26.3191 104.381Z" fill="#0CD0A2"/>
<path d="M9.40231 73.498C9.40231 73.498 9.04775 62.011 6.80647 62.3716C4.56551 62.7319 9.40231 73.498 9.40231 73.498Z" fill="#0CD0A2"/>
<path d="M8.87695 71.0547C8.87695 71.0547 12.1115 97.2451 34.9928 110.99" stroke="#0CD0A2" stroke-miterlimit="10"/>
<path d="M24.4297 112.546C23.462 112.546 22.6748 111.639 22.6748 110.524V104.53C22.6748 103.416 23.4623 102.508 24.4297 102.508H28.567C29.5346 102.508 30.3218 103.416 30.3218 104.53V110.524C30.3218 111.639 29.5343 112.546 28.567 112.546H24.4297ZM25.5183 104.819C25.0834 104.819 24.7298 105.24 24.7298 105.758V109.296C24.7298 109.814 25.0834 110.236 25.5183 110.236H27.9788C28.4137 110.236 28.7673 109.815 28.7673 109.296V105.758C28.7673 105.24 28.4137 104.819 27.9788 104.819H25.5183Z" fill="#F5E073"/>
<path d="M28.5671 102.668C29.4481 102.668 30.1623 103.502 30.1623 104.53V110.524C30.1623 111.553 29.4481 112.386 28.5671 112.386H24.4298C23.5489 112.386 22.8346 111.553 22.8346 110.524V104.53C22.8346 103.502 23.5489 102.668 24.4298 102.668H28.5671ZM25.5185 110.395H27.979C28.5028 110.395 28.9274 109.903 28.9274 109.296V105.758C28.9274 105.151 28.5028 104.659 27.979 104.659H25.5185C24.9946 104.659 24.5697 105.151 24.5697 105.758V109.296C24.5697 109.903 24.9946 110.395 25.5185 110.395ZM28.5671 102.348H24.4298C23.3738 102.348 22.5146 103.327 22.5146 104.53V110.524C22.5146 111.727 23.3738 112.706 24.4298 112.706H28.5671C29.6231 112.706 30.4823 111.727 30.4823 110.524V104.53C30.4823 103.327 29.6231 102.348 28.5671 102.348ZM25.5185 110.075C25.1719 110.075 24.8897 109.726 24.8897 109.296V105.758C24.8897 105.328 25.1716 104.979 25.5185 104.979H27.979C28.3255 104.979 28.6074 105.328 28.6074 105.758V109.296C28.6074 109.726 28.3255 110.075 27.979 110.075H25.5185Z" fill="#0CD0A2"/>
<path d="M30.6098 116.325C28.708 116.325 27.1611 114.777 27.1611 112.876V100.116C27.1611 100.027 27.2328 99.9556 27.3211 99.9556H39.1333C39.2216 99.9556 39.2933 100.027 39.2933 100.116V112.876C39.2933 114.777 37.7461 116.325 35.8447 116.325H30.6098Z" fill="#F5E073"/>
<path d="M39.1328 100.115V112.876C39.1328 114.693 37.6611 116.164 35.8442 116.164H30.6096C28.7923 116.164 27.321 114.693 27.321 112.876V100.115H39.1328ZM39.1328 99.7954H27.321C27.1443 99.7954 27.001 99.9388 27.001 100.115V112.876C27.001 114.865 28.6199 116.484 30.6096 116.484H35.8442C37.8339 116.484 39.4528 114.865 39.4528 112.876V100.115C39.4528 99.9388 39.3095 99.7954 39.1328 99.7954Z" fill="#0CD0A2"/>
<g opacity="0.75">
<path d="M34.9802 116.165H30.6099C28.7927 116.165 27.3213 114.693 27.3213 112.876V100.116H32.6311C32.1744 103.852 31.4256 113.248 34.9802 116.165Z" fill="#F5E073"/>
</g>
<path d="M159.706 101.487C159.706 101.487 151.77 90.5046 156.019 89.9434C160.267 89.3821 161.606 92.9942 161.606 92.9942C161.606 92.9942 158.247 83.8992 161.539 83.7562C163.383 83.6762 165.755 89.2515 165.755 89.2515C165.755 89.2515 162.506 73.1895 169.332 73.1895C170.855 73.1895 174.857 77.1974 173.013 89.3021C173.013 89.3021 175.178 82.7287 179.426 84.5725C183.675 86.4163 175.899 93.9514 175.899 93.9514C175.899 93.9514 181.35 88.2599 183.595 91.5466C185.839 94.8333 176.601 101.487 176.601 101.487H159.706Z" fill="#B8E072"/>
<path d="M179.425 84.5723C183.674 86.4161 175.898 93.9511 175.898 93.9511C175.898 93.9511 181.349 88.2596 183.594 91.5463" stroke="#0CD0A2" stroke-miterlimit="10" stroke-linecap="round" stroke-linejoin="round"/>
<path d="M156.019 89.9434C160.267 89.3821 161.606 92.9942 161.606 92.9942C161.606 92.9942 158.247 83.8992 161.539 83.7562C163.383 83.6762 165.755 89.2515 165.755 89.2515C165.755 89.2515 162.506 73.1895 169.332 73.1895" stroke="#0CD0A2" stroke-miterlimit="10" stroke-linecap="round" stroke-linejoin="round"/>
<path d="M168.373 117.834C165.676 117.834 163.372 117.037 161.526 115.465C158.2 112.633 156.515 107.484 156.515 100.161C156.515 100.073 156.586 100.001 156.675 100.001H180.644C180.733 100.001 180.804 100.073 180.804 100.161C180.804 114.808 174.011 117.497 169.961 117.797C169.538 117.83 169.186 117.834 168.927 117.834L168.373 117.834Z" fill="#F5E073"/>
<path d="M180.644 100.161C180.644 115.43 173.242 117.394 169.949 117.637C169.538 117.669 169.192 117.674 168.93 117.674C168.826 117.674 168.735 117.673 168.659 117.673C168.58 117.673 168.484 117.674 168.373 117.674C165.988 117.674 156.674 117.294 156.674 100.161H180.644ZM180.644 99.8413H156.674C156.498 99.8413 156.354 99.9847 156.354 100.161C156.354 115.677 163.884 117.994 168.373 117.994L168.541 117.994L168.659 117.993L168.772 117.994L168.93 117.994C169.191 117.994 169.546 117.99 169.974 117.957C174.078 117.653 180.964 114.937 180.964 100.161C180.964 99.9843 180.821 99.8413 180.644 99.8413Z" fill="#0CD0A2"/>
<g opacity="0.75">
<path d="M169.949 117.637C169.372 117.681 168.925 117.673 168.659 117.673C166.873 117.673 156.674 118.089 156.674 100.161H164.958C164.958 100.161 162.671 113.015 169.949 117.637Z" fill="#F5E073"/>
</g>
<path d="M50.0252 48.7664C49.7075 44.5776 46.216 41.2759 41.9456 41.2759C37.6755 41.2759 34.184 44.5776 33.8662 48.7664H50.0252Z" fill="white"/>
<path d="M58.841 48.7666C59.5821 47.5426 60.0164 46.1126 60.0164 44.5775C60.0164 40.0982 56.385 36.4668 51.9056 36.4668C47.4263 36.4668 43.7949 40.0982 43.7949 44.5775C43.7949 46.1126 44.2292 47.543 44.9703 48.7666H58.841Z" fill="white"/>
<path d="M68.4108 48.7668C67.7986 44.8935 64.4549 41.9287 60.4095 41.9287C56.364 41.9287 53.0204 44.8935 52.4082 48.7668H68.4108Z" fill="white"/>
<path d="M156.673 65.8459C156.408 62.3445 153.489 59.5845 149.92 59.5845C146.35 59.5845 143.432 62.3445 143.166 65.8459H156.673Z" fill="white"/>
<path d="M164.042 65.8461C164.662 64.823 165.025 63.6275 165.025 62.3443C165.025 58.6 161.989 55.5645 158.245 55.5645C154.5 55.5645 151.465 58.6 151.465 62.3443C151.465 63.6275 151.828 64.823 152.447 65.8461H164.042Z" fill="white"/>
<path d="M172.042 65.8462C171.53 62.6085 168.735 60.1304 165.353 60.1304C161.972 60.1304 159.177 62.6088 158.665 65.8462H172.042Z" fill="white"/>
<path d="M154.814 79.1309L149.009 116.164L92.1035 116.52L98.8971 79.1309H154.814Z" fill="#0CD0A2"/>
<path d="M149.009 116.164L92.1035 116.52L98.8971 79.1309H111.672C112.04 87.5917 116.12 110.532 149.009 116.164Z" fill="#0CD0A2"/>
<path d="M154.677 79.1309H98.8984L92.1025 116.519" stroke="#0CD0A2" stroke-miterlimit="10" stroke-linecap="round" stroke-linejoin="round"/>
<path d="M192.449 116.166H16.7754V124.586H192.449V116.166Z" fill="#EDEDED" stroke="#0CD0A2" stroke-miterlimit="10" stroke-linecap="round" stroke-linejoin="round"/>
</svg>
